<mxfile host="app.diagrams.net" modified="2024-03-18T23:10:44.670Z" agent="Mozilla/5.0 (Windows NT 10.0; Win64; x64) AppleWebKit/537.36 (KHTML, like Gecko) Chrome/121.0.0.0 Safari/537.36 OPR/107.0.0.0" version="24.0.7" etag="6jeZTrEQImFUwK4LXhmF" type="github">
  <diagram name="Page-1" id="ZYoAHQ5XkMIbZZ1vER-c">
    <mxGraphModel>
      <root>
        <mxCell id="0" />
        <mxCell id="1" parent="0" />
      </root>
    </mxGraphModel>
  </diagram>
</mxfile>
